<?xml version="1.0" encoding="UTF-8"?>
<svg id="a" data-name="Layer 3" xmlns="http://www.w3.org/2000/svg" width="1008.667" height="144.998" viewBox="0 0 1008.667 144.998">
  <g id="b" data-name="Logos">
    <g>
      <rect y="5.242" width="16.676" height="137.966"/>
      <path d="M56.978,69.763c13.831-4.501,23.013-16.98,23.013-31.527,0-9.853-4.455-18.28-12.885-24.372-7.695-5.56-18.014-8.622-29.057-8.622h-6.946v4.945h3.765c14.136,0,28.446,10.044,28.446,29.242,0,16.174-11.971,28.844-27.253,28.844h-.385v4.745h.385c19.844,0,34.809,13.683,34.809,31.827,0,20.925-12.79,33.418-34.213,33.418h-5.554v4.944h9.332c29.182,0,47.31-14.623,47.31-38.162,0-17.785-12.019-31.487-30.768-35.282Z"/>
      <polygon points="106.048 143.208 121.73 143.208 121.73 0 106.048 2.719 106.048 143.208"/>
      <path d="M219.502,138.264c-5.237,0-8.364-4.168-8.364-11.149v-53.486c0-20.785-11.888-33.193-31.801-33.193-11.512,0-23.964,5.113-28.899,9.851l-.118.113v6.946l.63-.521c4.114-3.405,12.759-9.078,24.398-8.859,12.84.402,20.505,10.144,20.505,26.061v51.896c0,12.219,6.184,18.677,17.882,18.677,6.065,0,9.903-2.021,10.935-2.641l.187-.112v-4.748l-.519.195c-1.548.579-3.492.969-4.836.969Z"/>
      <path d="M140.872,121.946c0,13.127,9.946,22.654,23.648,22.654,7.205,0,12.447-1.522,18.696-5.428l.181-.113v-5.858l-.58.343c-4.393,2.596-7.55,3.128-10.94,3.128-9.57,0-16.516-7.532-16.516-17.908,0-13.527,10.944-20.41,17.467-23.31l10.569-4.674v-5.38l-12.645,4.769c-24.696,8.959-29.88,22.225-29.88,31.777Z"/>
      <path d="M312.971,56.787l.669.736v-10.574l-.208-.108c-5.659-2.933-11.617-5.616-22.226-6.206l-.406-.023v4.925l.341.04c12.066,1.392,19.759,8.932,21.83,11.21Z"/>
      <path d="M286.948,137.27c-10.3-.195-19.925-5.001-27.102-13.533-7.411-8.81-11.492-20.886-11.492-34.003,0-18.433,8.947-39.237,28.936-44.165l.293-.072v-4.895l-.416.035c-12.254,1.004-23.483,6.45-31.619,15.335-8.684,9.483-13.274,22.052-13.274,36.349,0,15.005,5.39,28.572,15.177,38.201,9.487,9.335,22.453,14.477,36.508,14.477,15.088,0,25.732-4.256,30.663-8.238l.143-.115v-8.999l-.642.575c-6.516,5.843-16.682,9.229-27.175,9.048Z"/>
      <polygon points="331.392 143.208 347.074 143.208 347.074 .995 331.392 3.712 331.392 143.208"/>
      <polygon points="413.714 41.828 405.668 41.828 359.994 87.704 398.753 143.045 398.868 143.208 418.306 143.208 374.317 81.425 413.714 41.828"/>
      <path d="M525.876,22.98c-13.476-11.439-32.216-17.738-52.767-17.738h-9.929v4.945h7.941c35.246,0,59.863,26.333,59.863,64.038,0,18.721-5.586,34.695-16.153,46.194-10.73,11.674-25.845,17.845-43.71,17.845h-7.94v4.944h9.929c21.034,0,39.934-6.291,53.216-17.715,14.348-12.339,21.932-30.136,21.932-51.466,0-20.967-7.739-38.618-22.381-51.046Z"/>
      <rect x="432.293" y="5.242" width="16.676" height="137.966"/>
      <path d="M575.129,55.519c-9.093,9.606-13.9,22.4-13.9,37s4.806,27.394,13.899,36.999c8.335,8.806,19.625,14.162,31.791,15.082l.414.031v-4.897l-.299-.068c-17.816-4.066-29.327-22.572-29.327-47.146,0-24.345,11.784-43.292,29.324-47.146l.302-.066v-4.9l-.414.031c-12.164.92-23.454,6.276-31.79,15.082Z"/>
      <path d="M620.764,40.437l-.414-.032v4.9l.301.067c17.541,3.897,29.326,22.844,29.326,47.146,0,24.574-11.512,43.08-29.328,47.146l-.299.068v4.898l.414-.032c22.705-1.732,45.69-20.178,45.69-52.081s-22.985-50.349-45.69-52.082Z"/>
      <path d="M759.387,56.787l.669.736v-10.573l-.207-.108c-5.658-2.933-11.615-5.617-22.227-6.206l-.406-.023v4.924l.34.04c12.065,1.392,19.759,8.932,21.83,11.21Z"/>
      <path d="M733.364,137.27c-10.3-.195-19.925-5.001-27.102-13.533-7.411-8.81-11.492-20.886-11.492-34.002,0-18.433,8.948-39.237,28.937-44.166l.292-.072v-4.894l-.416.035c-12.254,1.004-23.483,6.45-31.619,15.335-8.683,9.483-13.273,22.052-13.273,36.348,0,15.005,5.39,28.572,15.177,38.202,9.487,9.335,22.452,14.476,36.507,14.476,15.087,0,25.732-4.255,30.664-8.237l.143-.115v-9l-.642.575c-6.518,5.843-16.673,9.234-27.175,9.048Z"/>
      <path d="M815.376,137.468c-7.256,0-11.944-4.531-11.944-11.545V47.171h20.083v-5.343h-20.083v-18.758l-15.483,2.511v16.247h-12.526v5.343h12.526v77.559c0,13.07,7.834,20.268,22.057,20.268,6.041,0,11.846-1.512,15.529-4.045l.167-.115v-6.233l-.575.328c-2.654,1.516-6.573,2.535-9.751,2.535Z"/>
      <path d="M891.222,40.437l-.414-.032v4.9l.301.067c17.541,3.898,29.326,22.844,29.326,47.146,0,24.574-11.512,43.08-29.328,47.147l-.299.068v4.897l.414-.032c22.705-1.732,45.69-20.176,45.69-52.081s-22.985-50.349-45.69-52.082Z"/>
      <path d="M845.585,55.519c-9.093,9.606-13.9,22.4-13.9,37s4.806,27.393,13.9,36.999c8.335,8.806,19.625,14.162,31.79,15.082l.414.031v-4.896l-.299-.068c-17.816-4.067-29.327-22.573-29.327-47.147,0-24.345,11.784-43.292,29.324-47.146l.302-.066v-4.9l-.414.031c-12.164.921-23.454,6.277-31.79,15.082Z"/>
      <polygon points="952.139 143.208 967.82 143.208 967.82 40.364 952.139 43.082 952.139 143.208"/>
      <path d="M1008.425,41.459c-2.29-.916-4.81-1.022-6.506-1.022-7.284,0-13.26,3.169-19.384,10.28l-3.866,4.68v3.89l3.806-2.855c5.281-4.225,10.862-6.279,17.059-6.279,2.708,0,5.368.485,8.627,1.572l.506.168v-10.338l-.242-.096Z"/>
    </g>
  </g>
</svg>